<?xml version="1.0"?>
<svg xmlns="http://www.w3.org/2000/svg" viewBox="0 0 64 64" width="512" height="512"><g id="Process_idea_thinking_brain_tool"><circle cx="48" cy="48" r="1"/><circle cx="32" cy="55" r="1"/><path d="M26,19a4.994,4.994,0,0,0-4.04,2.07A7.015,7.015,0,0,1,28,28H26a5,5,0,0,0-4.9-4.99A5.359,5.359,0,0,0,21,24a5,5,0,0,0,5,5v2a7.008,7.008,0,0,1-7-7,5.683,5.683,0,0,1,.03-.59A5,5,0,0,0,21,33v2a6.978,6.978,0,0,1-5.63-2.86A4.823,4.823,0,0,0,15,34a5,5,0,0,0,10,0h2a7.013,7.013,0,0,1-5.91,6.91A5,5,0,0,0,31,40V24A5,5,0,0,0,26,19Z"/><circle cx="9" cy="32" r="1"/><circle cx="16" cy="16" r="1"/><path d="M43,35V33a5,5,0,0,0,1.97-9.59A5.683,5.683,0,0,1,45,24a7.008,7.008,0,0,1-7,7V29a5,5,0,0,0,5-5,5.359,5.359,0,0,0-.1-.99A5,5,0,0,0,38,28H36a7.015,7.015,0,0,1,6.04-6.93A4.992,4.992,0,0,0,33,24V40a5,5,0,0,0,9.91.91A7.013,7.013,0,0,1,37,34h2a5,5,0,0,0,10,0,4.823,4.823,0,0,0-.37-1.86A6.978,6.978,0,0,1,43,35Z"/><circle cx="32" cy="9" r="1"/><circle cx="16" cy="48" r="1"/><path d="M53.2,26.13a21.636,21.636,0,0,0-2.06-4.97.99.99,0,0,1,.06-1.07l3.54-4.95L48.86,9.26,43.91,12.8a.99.99,0,0,1-1.07.06,22.009,22.009,0,0,0-4.97-2.06,1.032,1.032,0,0,1-.72-.8l-1-6h-8.3l-1,6a1.032,1.032,0,0,1-.72.8,22.009,22.009,0,0,0-4.97,2.06.99.99,0,0,1-1.07-.06L15.14,9.26,9.26,15.14l3.54,4.95a.99.99,0,0,1,.06,1.07,21.636,21.636,0,0,0-2.06,4.97,1.018,1.018,0,0,1-.8.72l-6,1v8.3l6,1a1.018,1.018,0,0,1,.8.72,21.636,21.636,0,0,0,2.06,4.97.99.99,0,0,1-.06,1.07L9.26,48.86l5.88,5.88,4.95-3.54a.99.99,0,0,1,1.07-.06,22.009,22.009,0,0,0,4.97,2.06,1.032,1.032,0,0,1,.72.8l1,6h8.3l1-6a1.032,1.032,0,0,1,.72-.8,22.009,22.009,0,0,0,4.97-2.06.99.99,0,0,1,1.07.06l4.95,3.54,5.88-5.88L51.2,43.91a.99.99,0,0,1-.06-1.07,21.636,21.636,0,0,0,2.06-4.97,1.018,1.018,0,0,1,.8-.72l6-1v-8.3l-6-1A1.018,1.018,0,0,1,53.2,26.13ZM9,35a3,3,0,1,1,3-3A3,3,0,0,1,9,35ZM32,6a3,3,0,1,1-3,3A3,3,0,0,1,32,6Zm1,8v2H31V14ZM16,13a3,3,0,1,1-3,3A3,3,0,0,1,16,13Zm0,38a3,3,0,1,1,3-3A3,3,0,0,1,16,51Zm16,7a3,3,0,1,1,3-3A3,3,0,0,1,32,58Zm-1-8V48h2v2Zm17,1a3,3,0,1,1,3-3A3,3,0,0,1,48,51ZM44.93,40.93A6.992,6.992,0,0,1,32,43.6a6.992,6.992,0,0,1-12.93-2.67,6.961,6.961,0,0,1-4.78-10.94A6.89,6.89,0,0,1,14,28a7.005,7.005,0,0,1,5.62-6.86A6.99,6.99,0,0,1,32,20.4a6.99,6.99,0,0,1,12.38.74A7.005,7.005,0,0,1,50,28a6.89,6.89,0,0,1-.29,1.99,6.961,6.961,0,0,1-4.78,10.94ZM48,19a3,3,0,1,1,3-3A3,3,0,0,1,48,19ZM58,32a3,3,0,1,1-3-3A3,3,0,0,1,58,32Z"/><circle cx="55" cy="32" r="1"/><circle cx="48" cy="16" r="1"/></g></svg>
