<svg height="496pt" viewBox="0 -88 496 496" width="496pt" xmlns="http://www.w3.org/2000/svg" fill="#646060"><path d="m472 0h-448c-13.230469 0-24 10.769531-24 24v272c0 13.230469 10.769531 24 24 24h448c13.230469 0 24-10.769531 24-24v-272c0-13.230469-10.769531-24-24-24zm8 272h-48v-48h16v16h16v-16h16zm-16-64v-96h16v96zm-16-128v16h-16v-48h48v48h-16v-16zm24 224h-448c-4.40625 0-8-3.585938-8-8v-272c0-4.40625 3.59375-8 8-8h448c4.40625 0 8 3.59375 8 8v8h-56c-4.414062 0-8 3.585938-8 8v64c0 4.414062 3.585938 8 8 8h24v96h-24c-4.414062 0-8 3.574219-8 8v64c0 4.425781 3.585938 8 8 8h56v8c0 4.414062-3.59375 8-8 8zm0 0"/><path d="m320 96c0-4.414062-3.585938-8-8-8h-8v-32h-16v32h-16v-32h-16v32h-16v-32h-16v32h-16v-32h-16v32h-8c-4.414062 0-8 3.585938-8 8v8h-32v16h32v16h-32v16h32v16h-32v16h32v16h-32v16h32v8c0 4.425781 3.585938 8 8 8h8v32h16v-32h16v32h16v-32h16v32h16v-32h16v32h16v-32h8c4.414062 0 8-3.574219 8-8v-8h32v-16h-32v-16h32v-16h-32v-16h32v-16h-32v-16h32v-16h-32zm-16 120h-112v-112h112zm0 0"/><path d="m224 136h16v-16h-24c-4.414062 0-8 3.585938-8 8v24h16zm0 0"/><path d="m288 192v-24h-16v16h-16v16h24c4.414062 0 8-3.574219 8-8zm0 0"/><path d="m72 32h-32c-4.414062 0-8 3.585938-8 8v48c0 4.414062 3.585938 8 8 8h8v128h-8c-4.414062 0-8 3.574219-8 8v48c0 4.425781 3.585938 8 8 8h32c4.414062 0 8-3.574219 8-8v-48c0-4.425781-3.585938-8-8-8h-8v-128h8c4.414062 0 8-3.585938 8-8v-48c0-4.414062-3.585938-8-8-8zm-8 240h-16v-32h16zm0-192h-16v-32h16zm0 0"/><path d="m96 32h16v16h-16zm0 0"/><path d="m112 48h16v16h-16zm0 0"/><path d="m96 64h16v16h-16zm0 0"/><path d="m112 80h16v16h-16zm0 0"/><path d="m96 96h16v16h-16zm0 0"/><path d="m112 112h16v16h-16zm0 0"/><path d="m96 128h16v16h-16zm0 0"/><path d="m112 144h16v16h-16zm0 0"/><path d="m96 160h16v16h-16zm0 0"/><path d="m112 176h16v16h-16zm0 0"/><path d="m96 192h16v16h-16zm0 0"/><path d="m112 208h16v16h-16zm0 0"/><path d="m96 224h16v16h-16zm0 0"/><path d="m112 240h16v16h-16zm0 0"/><path d="m96 256h16v16h-16zm0 0"/><path d="m112 272h16v16h-16zm0 0"/><path d="m368 32h16v16h-16zm0 0"/><path d="m384 48h16v16h-16zm0 0"/><path d="m368 64h16v16h-16zm0 0"/><path d="m384 80h16v16h-16zm0 0"/><path d="m368 96h16v16h-16zm0 0"/><path d="m384 112h16v16h-16zm0 0"/><path d="m368 128h16v16h-16zm0 0"/><path d="m384 144h16v16h-16zm0 0"/><path d="m368 160h16v16h-16zm0 0"/><path d="m384 176h16v16h-16zm0 0"/><path d="m368 192h16v16h-16zm0 0"/><path d="m384 208h16v16h-16zm0 0"/><path d="m368 224h16v16h-16zm0 0"/><path d="m384 240h16v16h-16zm0 0"/><path d="m368 256h16v16h-16zm0 0"/><path d="m384 272h16v16h-16zm0 0"/></svg>
