<svg height="453pt" viewBox="-9 0 453 453.78906" width="453pt" xmlns="http://www.w3.org/2000/svg"><path d="m217.84375 229.816406c-6-.011718-11.921875-1.378906-17.320312-4l-145.816407-70.03125-49.800781 23.921875c-2.734375 1.34375-4.472656 4.128907-4.472656 7.179688s1.738281 5.835937 4.472656 7.179687l202.539062 97.390625c6.582032 3.109375 14.214844 3.109375 20.796876 0l202.539062-97.351562c2.734375-1.34375 4.46875-4.128907 4.46875-7.179688s-1.734375-5.835937-4.46875-7.179687l-49.800781-23.960938-145.808594 70.066406c-5.40625 2.605469-11.328125 3.964844-17.328125 3.964844zm0 0"/><path d="m.394531 106.90625c-.035156 3.082031 1.738281 5.902344 4.535157 7.199219l202.515624 97.320312c6.566407 3.179688 14.230469 3.179688 20.796876 0l202.503906-97.320312c2.761718-1.335938 4.515625-4.132813 4.515625-7.199219s-1.753907-5.863281-4.515625-7.199219l-202.503906-97.320312c-6.566407-3.183594-14.230469-3.183594-20.796876 0l-202.515624 97.320312c-2.796876 1.296875-4.570313 4.117188-4.535157 7.199219zm0 0"/><path d="m4.882812 354.105469 202.5625 97.351562c6.582032 3.109375 14.214844 3.109375 20.796876 0l202.527343-97.351562c2.789063-1.3125 4.566407-4.117188 4.566407-7.199219s-1.777344-5.886719-4.566407-7.199219l-49.796875-23.921875-145.816406 70.097656c-10.957031 5.167969-23.648438 5.167969-34.601562 0l-145.839844-70.097656-49.808594 23.921875c-2.757812 1.335938-4.511719 4.132813-4.511719 7.199219s1.753907 5.863281 4.511719 7.199219zm0 0"/><path d="m228.242188 371.441406 202.539062-97.335937c2.757812-1.335938 4.511719-4.132813 4.511719-7.199219s-1.753907-5.863281-4.511719-7.199219l-49.808594-23.921875-145.816406 70.097656c-10.957031 5.167969-23.648438 5.167969-34.601562 0l-145.839844-70.097656-49.808594 23.921875c-2.757812 1.335938-4.511719 4.132813-4.511719 7.199219s1.753907 5.863281 4.511719 7.199219l202.539062 97.351562c6.585938 3.105469 14.214844 3.097657 20.796876-.015625zm0 0"/></svg>