<svg id="Layer_3" enable-background="new 0 0 64 64" height="512" viewBox="0 0 64 64" width="512" xmlns="http://www.w3.org/2000/svg" fill="#646060"><g><g><path d="m19 8h-2v-6c0-.553.448-1 1-1h6v2h-5z"/></g><g><path d="m47 8h-2v-5h-5v-2h6c.552 0 1 .447 1 1z"/></g><g><path d="m43 5h-11v3h7c.552 0 1 .447 1 1v3h-2v-2h-6v1c0 .553-.448 1-1 1h-3v-2h2v-5h-9v22h22zm-6 11v2h-4v4h-2v-5c0-.553.448-1 1-1zm-7-3h2v2h-2zm-4-6h2v2h-2zm-3 0h2v2h-2zm0 7c0-.553.448-1 1-1h1v-1h-2v-2h3c.552 0 1 .447 1 1v2h2v2h-4v4h-2zm2 11h-2v-2h2zm3 0h-2v-3h-3v-2h4c.552 0 1 .447 1 1zm-2-7v-2h2v2h2v2h-2v-2zm10 6c0 .553-.448 1-1 1h-6v-2h5v-4h2zm5 0c0 .553-.448 1-1 1h-3v-2h2v-4h2zm0-7h-2v-2h-2v-2h-2v2h-2v-2h2v-2h2v2h3c.552 0 1 .447 1 1z"/><path d="m18 33.118-13.764 6.882 13.764 6.882 13.764-6.882z"/><path d="m3 53.382 14 7v-11.764l-14-7z"/><path d="m46 33.118-11.764 5.882.211.105c.339.17.553.516.553.895v1.382l11 5.5 13.764-6.882z"/><path d="m19 60.382 14-7v-11.764l-14 7z"/><path d="m47 48.618v11.764l14-7v-11.764z"/><path d="m35 54c0 .379-.214.725-.553.895l-.211.105 10.764 5.382v-11.764l-10-5z"/><path d="m40 31h6c.552 0 1-.447 1-1v-6h-2v5h-5z"/></g><g><path d="m24 31h-6c-.552 0-1-.447-1-1v-6h2v5h5z"/></g></g></svg>
