<svg height="512" viewBox="0 0 46 56" width="512" xmlns="http://www.w3.org/2000/svg" fill="#646060"><g id="Page-1" fill="none" fill-rule="evenodd"><g id="124---Script-Folder" fill="rgb(0,0,0)" fill-rule="nonzero"><path id="Shape" d="m44 4.184v44.816c-.0033061 2.7600532-2.2399468 4.9966939-5 5h-34.816c.42225455 1.1943509 1.54921457 1.9947486 2.816 2h36c1.6568542 0 3-1.3431458 3-3v-46c-.0052514-1.26678543-.8056491-2.39374545-2-2.816z"/><path id="Shape" d="m11 8v-6.586l-9.586 9.586h6.586c1.65685425 0 3-1.34314575 3-3z"/><path id="Shape" d="m42 49v-46c0-1.65685425-1.3431458-3-3-3h-26v8c-.0033061 2.7600532-2.2399468 4.9966939-5 5h-8v36c0 1.6568542 1.34314575 3 3 3h36c1.6568542 0 3-1.3431458 3-3zm-4-12h-15c-.5522847 0-1-.4477153-1-1s.4477153-1 1-1h15c.5522847 0 1 .4477153 1 1s-.4477153 1-1 1zm1 4c0 .5522847-.4477153 1-1 1h-9c-.5522847 0-1-.4477153-1-1s.4477153-1 1-1h9c.5522847 0 1 .4477153 1 1zm-30-1h15c.5522847 0 1 .4477153 1 1s-.4477153 1-1 1h-15c-.55228475 0-1-.4477153-1-1s.44771525-1 1-1zm-1-4c0-.5522847.44771525-1 1-1h9c.5522847 0 1 .4477153 1 1s-.4477153 1-1 1h-9c-.55228475 0-1-.4477153-1-1zm29-34h2c.5522847 0 1 .44771525 1 1s-.4477153 1-1 1h-2c-.5522847 0-1-.44771525-1-1s.4477153-1 1-1zm-1 19c.5522847 0 1 .4477153 1 1s-.4477153 1-1 1c-1.145 0-2 .58-2 1.1v2.8c0 1.739-1.757 3.1-4 3.1-.5522847 0-1-.4477153-1-1s.4477153-1 1-1c1.145 0 2-.58 2-1.1v-2.8c.014572-.8188684.3932387-1.5886652 1.033-2.1-.6397613-.5113348-1.018428-1.2811316-1.033-2.1v-2.8c0-.52-.855-1.1-2-1.1-.5522847 0-1-.4477153-1-1s.4477153-1 1-1c2.243 0 4 1.361 4 3.1v2.8c0 .52.855 1.1 2 1.1zm-9-19h6c.5522847 0 1 .44771525 1 1s-.4477153 1-1 1h-6c-.5522847 0-1-.44771525-1-1s.4477153-1 1-1zm-1 22c.5522847 0 1 .4477153 1 1s-.4477153 1-1 1-1-.4477153-1-1 .4477153-1 1-1zm-4 0c.5522847 0 1 .4477153 1 1s-.4477153 1-1 1-1-.4477153-1-1 .4477153-1 1-1zm-4 0c.5522847 0 1 .4477153 1 1s-.4477153 1-1 1-1-.4477153-1-1 .4477153-1 1-1zm-13 23h-1c-.55228475 0-1-.4477153-1-1s.44771525-1 1-1h1c.55228475 0 1 .4477153 1 1s-.44771525 1-1 1zm0-5h-1c-.55228475 0-1-.4477153-1-1s.44771525-1 1-1h1c.55228475 0 1 .4477153 1 1s-.44771525 1-1 1zm0-5h-1c-.55228475 0-1-.4477153-1-1s.44771525-1 1-1h1c.55228475 0 1 .4477153 1 1s-.44771525 1-1 1zm2-15c0-.5522847.44771525-1 1-1 1.145 0 2-.58 2-1.1v-2.8c0-1.739 1.757-3.1 4-3.1.5522847 0 1 .4477153 1 1s-.4477153 1-1 1c-1.145 0-2 .58-2 1.1v2.8c-.014572.8188684-.3932387 1.5886652-1.033 2.1.6397613.5113348 1.018428 1.2811316 1.033 2.1v2.8c0 .52.855 1.1 2 1.1.5522847 0 1 .4477153 1 1s-.4477153 1-1 1c-2.243 0-4-1.361-4-3.1v-2.8c0-.52-.855-1.1-2-1.1-.55228475 0-1-.4477153-1-1zm11 25h-9c-.55228475 0-1-.4477153-1-1s.44771525-1 1-1h9c.5522847 0 1 .4477153 1 1s-.4477153 1-1 1zm20 0h-15c-.5522847 0-1-.4477153-1-1s.4477153-1 1-1h15c.5522847 0 1 .4477153 1 1s-.4477153 1-1 1z"/></g></g></svg>
