<svg height="512" viewBox="0 0 60 58" width="512" xmlns="http://www.w3.org/2000/svg" fill="#646060"><g id="Page-1" fill="none" fill-rule="evenodd"><g id="043---Data-Cloud" fill="rgb(0,0,0)" fill-rule="nonzero"><circle id="Oval" cx="30" cy="5" r="5"/><circle id="Oval" cx="30" cy="5" r="5"/><path id="Shape" d="m16.56 15.56c-1.4298712 1.4303031-3.5805788 1.8583586-5.4491361 1.0845421-1.86855735-.7738165-3.08693163-2.5970935-3.08693163-4.6195421s1.21837428-3.8457256 3.08693163-4.61954211c1.8685573-.77381651 4.0192649-.34576096 5.4491361 1.08454211.9410462.93567564 1.4701743 2.2079518 1.4701743 3.535s-.5291281 2.5993244-1.4701743 3.535z"/><path id="Shape" d="m16.56 15.56c-1.4298712 1.4303031-3.5805788 1.8583586-5.4491361 1.0845421-1.86855735-.7738165-3.08693163-2.5970935-3.08693163-4.6195421s1.21837428-3.8457256 3.08693163-4.61954211c1.8685573-.77381651 4.0192649-.34576096 5.4491361 1.08454211.9410462.93567564 1.4701743 2.2079518 1.4701743 3.535s-.5291281 2.5993244-1.4701743 3.535z"/><circle id="Oval" cx="5" cy="29" r="5"/><circle id="Oval" cx="5" cy="29" r="5"/><path id="Shape" d="m16.56 49.51c-1.4298712 1.4303031-3.5805788 1.8583586-5.4491361 1.0845421-1.86855735-.7738165-3.08693163-2.5970935-3.08693163-4.6195421s1.21837428-3.8457256 3.08693163-4.6195421c1.8685573-.7738165 4.0192649-.345761 5.4491361 1.0845421 1.9519097 1.9524993 1.9519097 5.1175007 0 7.07z"/><path id="Shape" d="m16.56 49.51c-1.4298712 1.4303031-3.5805788 1.8583586-5.4491361 1.0845421-1.86855735-.7738165-3.08693163-2.5970935-3.08693163-4.6195421s1.21837428-3.8457256 3.08693163-4.6195421c1.8685573-.7738165 4.0192649-.345761 5.4491361 1.0845421 1.9519097 1.9524993 1.9519097 5.1175007 0 7.07z"/><circle id="Oval" cx="30" cy="53" r="5"/><circle id="Oval" cx="30" cy="53" r="5"/><path id="Shape" d="m50.51 49.51c-1.4298712 1.4303031-3.5805788 1.8583586-5.4491361 1.0845421-1.8685574-.7738165-3.0869316-2.5970935-3.0869316-4.6195421s1.2183742-3.8457256 3.0869316-4.6195421c1.8685573-.7738165 4.0192649-.345761 5.4491361 1.0845421 1.9519097 1.9524993 1.9519097 5.1175007 0 7.07z"/><path id="Shape" d="m50.51 49.51c-1.4298712 1.4303031-3.5805788 1.8583586-5.4491361 1.0845421-1.8685574-.7738165-3.0869316-2.5970935-3.0869316-4.6195421s1.2183742-3.8457256 3.0869316-4.6195421c1.8685573-.7738165 4.0192649-.345761 5.4491361 1.0845421 1.9519097 1.9524993 1.9519097 5.1175007 0 7.07z"/><circle id="Oval" cx="55" cy="29" r="5"/><circle id="Oval" cx="55" cy="29" r="5"/><path id="Shape" d="m50.51 15.56c-1.4298712 1.4303031-3.5805788 1.8583586-5.4491361 1.0845421-1.8685574-.7738165-3.0869316-2.5970935-3.0869316-4.6195421s1.2183742-3.8457256 3.0869316-4.61954211c1.8685573-.77381651 4.0192649-.34576096 5.4491361 1.08454211.9410462.93567564 1.4701743 2.2079518 1.4701743 3.535s-.5291281 2.5993244-1.4701743 3.535z"/><path id="Shape" d="m50.51 15.56c-1.4298712 1.4303031-3.5805788 1.8583586-5.4491361 1.0845421-1.8685574-.7738165-3.0869316-2.5970935-3.0869316-4.6195421s1.2183742-3.8457256 3.0869316-4.61954211c1.8685573-.77381651 4.0192649-.34576096 5.4491361 1.08454211.9410462.93567564 1.4701743 2.2079518 1.4701743 3.535s-.5291281 2.5993244-1.4701743 3.535z"/><path id="Shape" d="m31 11.92v5.25c-.569813-.1124735-1.149193-.1694068-1.73-.17-.0901157-.0016621-.1802542.0016763-.27.01v-5.09c.6624.1066667 1.3376.1066667 2 0z"/><path id="Shape" d="m22.5 20.08c-.4532428.5082074-.8489748 1.0649151-1.18 1.66l-4.1-4.1c.5376561-.4043152 1.0156848-.8823439 1.42-1.42z"/><path id="Shape" d="m14.8 28c-.3166913.6316687-.5422673 1.3050301-.67 2h-2.21c.1066667-.6624.1066667-1.3376 0-2z"/><path id="Shape" d="m21.42 39-2.78 2.78c-.4043152-.5376561-.8823439-1.0156848-1.42-1.42l1.78-1.78c.773184.2776217 1.5884848.4197073 2.41.42z"/><path id="Shape" d="m31 39v7.08c-.6624-.1066667-1.3376-.1066667-2 0v-7.08z"/><path id="Shape" d="m42.78 40.36c-.5376561.4043152-1.0156848.8823439-1.42 1.42l-2.82-2.82c.7801859-.0795898 1.5447636-.2715763 2.27-.57z"/><path id="Shape" d="m48 29c-.0035977.3350656.0231785.6697679.08 1h-2.1c-.0392518-.6779213-.1566972-1.3490376-.35-2h2.45c-.0568215.3302321-.0835977.6649344-.08 1z"/><path id="Shape" d="m43.98 30c-.2721757-3.2872433-2.963361-5.849458-6.26-5.96-.540273-.0010592-1.0782992.0695567-1.6.21-.0962878-.336248-.2200374-.664017-.37-.98-.1406809-.3264792-.3079084-.6408669-.5-.94-1.1487316-1.8275146-3.0654757-3.0342172-5.21-3.28-.2549533-.0368813-.5124181-.0535998-.77-.05-.0904619-.0032971-.1810112.0034103-.27.02-1.9686071.0680478-3.8154951.9696782-5.08 2.48-.2319678.2604117-.4395075.5415946-.62.84-.6898367 1.0588371-1.0929853 2.27862-1.17 3.54-.2386607-.0322734-.4791693-.0489754-.72-.05-2.0974946.0158611-3.9945263 1.249322-4.86 3.16-.1586876.3226417-.2827143.6612012-.37 1.01-.3934646 1.5163321-.1355858 3.128094.7113458 4.4459651s2.2059026 2.2220146 3.7486542 2.4940349c.2546882.0402282.5121545.0602905.77.06h16.31c.0901157.0016621.1802542-.0016763.27-.01.4162313-.0127501.8293223-.0765609 1.23-.19 2.8423425-.7533756 4.8108926-3.3396715 4.78-6.28 0-.18-.01-.35-.02-.52z"/><path id="Shape" d="m42.78 17.64-4.43 4.43c-.21-.02-.42-.03-.63-.03-.11 0-.22 0-.33.01-.2056269-.4016502-.4430507-.7862097-.71-1.15l4.68-4.68c.4043152.5376561.8823439 1.0156848 1.42 1.42z"/></g></g></svg>
