<?xml version="1.0" encoding="UTF-8" standalone="no"?>
<!DOCTYPE svg PUBLIC "-//W3C//DTD SVG 1.1//EN" "http://www.w3.org/Graphics/SVG/1.1/DTD/svg11.dtd">
<svg version="1.1" xmlns="http://www.w3.org/2000/svg" xmlns:xlink="http://www.w3.org/1999/xlink" preserveAspectRatio="xMidYMid meet" viewBox="0 0 640 640" width="640" height="640"><defs><path d="M277.5 127.12C277.5 135.23 270.91 141.83 262.79 141.83C254.67 141.83 248.08 135.23 248.08 127.12C248.08 119 254.67 112.4 262.79 112.4C270.91 112.4 277.5 119 277.5 127.12Z" id="agXPWuxeP"></path><path d="M277.5 227.29C277.5 235.41 270.91 242 262.79 242C254.67 242 248.08 235.41 248.08 227.29C248.08 219.17 254.67 212.57 262.79 212.57C270.91 212.57 277.5 219.17 277.5 227.29Z" id="a32YtlX8MY"></path><path d="M320 156.54C320 164.66 313.41 171.25 305.29 171.25C297.17 171.25 290.58 164.66 290.58 156.54C290.58 148.42 297.17 141.83 305.29 141.83C313.41 141.83 320 148.42 320 156.54Z" id="fyJMKRORh"></path><path d="M237.21 156.54C237.21 164.66 230.62 171.25 222.5 171.25C214.38 171.25 207.79 164.66 207.79 156.54C207.79 148.42 214.38 141.83 222.5 141.83C230.62 141.83 237.21 148.42 237.21 156.54Z" id="bHf6iTl51"></path><path d="M207.79 205.77C207.79 213.89 201.2 220.48 193.08 220.48C184.96 220.48 178.37 213.89 178.37 205.77C178.37 197.65 184.96 191.06 193.08 191.06C201.2 191.06 207.79 197.65 207.79 205.77Z" id="a1vPahBg0X"></path><path d="M349.42 205.77C349.42 213.89 342.83 220.48 334.71 220.48C326.59 220.48 320 213.89 320 205.77C320 197.65 326.59 191.06 334.71 191.06C342.83 191.06 349.42 197.65 349.42 205.77Z" id="bRCs2offd"></path><path d="M207.79 271.83C207.79 279.94 201.2 286.54 193.08 286.54C184.96 286.54 178.37 279.94 178.37 271.83C178.37 263.71 184.96 257.11 193.08 257.11C201.2 257.11 207.79 263.71 207.79 271.83Z" id="e2szaWn93x"></path><path d="M349.42 271.83C349.42 279.94 342.83 286.54 334.71 286.54C326.59 286.54 320 279.94 320 271.83C320 263.71 326.59 257.11 334.71 257.11C342.83 257.11 349.42 263.71 349.42 271.83Z" id="aIthUyqeX"></path><path d="" id="adO9z0d9u"></path><path d="M262.79 127.12L262.79 227.29L262.79 127.12Z" id="cev9xOrZc"></path><path d="M222.5 156.54L262.79 128.95L305.29 156.54L262.79 227.29L222.5 156.54Z" id="a2miPzKx1o"></path><path d="M195.3 206.98L262.79 227.29L195.3 206.98Z" id="a5uuXQsbh"></path><path d="M334.71 271.83L334.71 206.98L263.89 227.29" id="a35jVUkBg"></path><path d="M193.08 271.83L262.79 226.03L305.29 156.54L336.73 206.98" id="a3pdfV3Ked"></path><path d="M334.71 271.83L262.79 227.29L222.5 156.54L193.08 206.98L193.08 271.83" id="f3DdkPMoM"></path></defs><g><g><g><use xlink:href="#agXPWuxeP" opacity="1" fill="#9ed7ff" fill-opacity="1"></use></g><g><use xlink:href="#a32YtlX8MY" opacity="1" fill="#9ed7ff" fill-opacity="1"></use></g><g><use xlink:href="#fyJMKRORh" opacity="1" fill="#9ed7ff" fill-opacity="1"></use></g><g><use xlink:href="#bHf6iTl51" opacity="1" fill="#9ed7ff" fill-opacity="1"></use></g><g><use xlink:href="#a1vPahBg0X" opacity="1" fill="#9ed7ff" fill-opacity="1"></use></g><g><use xlink:href="#bRCs2offd" opacity="1" fill="#9ed7ff" fill-opacity="1"></use></g><g><use xlink:href="#e2szaWn93x" opacity="1" fill="#9ed7ff" fill-opacity="1"></use></g><g><use xlink:href="#aIthUyqeX" opacity="1" fill="#9ed7ff" fill-opacity="1"></use></g><g><g><use xlink:href="#adO9z0d9u" opacity="1" fill-opacity="0" stroke="#000000" stroke-width="1" stroke-opacity="1"></use></g></g><g><use xlink:href="#cev9xOrZc" opacity="1" fill="#96dfff" fill-opacity="1"></use><g><use xlink:href="#cev9xOrZc" opacity="1" fill-opacity="0" stroke="#9ed7ff" stroke-width="3" stroke-opacity="1"></use></g></g><g><g><use xlink:href="#a2miPzKx1o" opacity="1" fill-opacity="0" stroke="#9ed7ff" stroke-width="3" stroke-opacity="1"></use></g></g><g><g><use xlink:href="#a5uuXQsbh" opacity="1" fill-opacity="0" stroke="#9ed7ff" stroke-width="3" stroke-opacity="1"></use></g></g><g><g><use xlink:href="#a35jVUkBg" opacity="1" fill-opacity="0" stroke="#9ed7ff" stroke-width="3" stroke-opacity="1"></use></g></g><g><g><use xlink:href="#a3pdfV3Ked" opacity="1" fill-opacity="0" stroke="#9ed7ff" stroke-width="3" stroke-opacity="1"></use></g></g><g><g><use xlink:href="#f3DdkPMoM" opacity="1" fill-opacity="0" stroke="#9ed7ff" stroke-width="3" stroke-opacity="1"></use></g></g></g></g></svg>